<?xml version="1.0" encoding="utf-8"?>
<!-- Generator: Adobe Illustrator 21.1.0, SVG Export Plug-In . SVG Version: 6.00 Build 0)  -->
<svg version="1.1" id="Layer_1" xmlns="http://www.w3.org/2000/svg" xmlns:xlink="http://www.w3.org/1999/xlink" x="0px" y="0px"
	 viewBox="0 0 320 320" style="enable-background:new 0 0 320 320;" xml:space="preserve">
<style type="text/css">
	.st0{fill:#63C250;}
	.st1{fill:#FFFFFF;}
</style>
<g>
	<g id="XMLID_1_">
		<g>
			<path class="st0" d="M285.2,104.5c0.1,37.1,0.1,74.3,0,111.4c-0.1,18.9-10,29.2-28.7,29.2c-64.3,0.1-128.6,0.1-193,0
				c-18.8,0-28.6-10.3-28.7-29.2c-0.1-37.4-0.1-74.8,0-112.2c0.1-18.8,10.3-28.8,29.1-28.9c32-0.1,64.1,0,96.1,0
				c31.8,0,63.5,0,95.3,0C275.2,74.8,285.2,84.7,285.2,104.5z M275.1,223.6c0-43.3,0-85.1,0-126.8c-0.8-0.2-1.5-0.3-2.3-0.5
				c-24.7,23-49.4,45.9-74.5,69.2C224.2,185.1,249.3,204,275.1,223.6z M271.5,232.3c-0.1-1-0.3-2.1-0.4-3.1
				c-26-19.4-51.9-38.9-77.8-58.3c-11.2,8.1-18.4,21.3-33.8,21.3c-15.3,0-22.3-13.6-33.6-20.9c-25.7,20.2-51.3,40.2-78.9,61.8
				c6.9,1.8,11.9,4.2,16.8,4.3c63.3,0.3,126.5,0.3,189.8-0.1C259.6,237.2,265.5,234,271.5,232.3z M271,88.3c-7-1.7-12-4-16.9-4
				c-63.5-0.3-127-0.3-190.4,0c-4.9,0-9.9,2.5-15.8,4.1c2,2.3,2.7,3.2,3.4,3.9c31.8,29,63.5,58.1,95.3,87c8.5,7.7,17.8,7.3,26.7-0.8
				c23.2-21.2,46.3-42.6,69.4-63.9C251.5,106.4,260.3,98.3,271,88.3z M43.4,227.5c26.9-21.5,51.8-41.3,77.3-61.6
				C95,142.2,70,119.1,43.4,94.4C43.4,139.6,43.4,182.4,43.4,227.5z"/>
			<path class="st1" d="M275.1,96.8c0,41.7,0,83.4,0,126.8c-25.8-19.5-50.9-38.5-76.8-58.1c25.1-23.3,49.8-46.3,74.5-69.2
				C273.6,96.4,274.4,96.6,275.1,96.8z"/>
			<path class="st1" d="M271.1,229.2c0.1,1,0.3,2.1,0.4,3.1c-6,1.7-11.9,4.9-17.9,5c-63.3,0.4-126.5,0.3-189.8,0.1
				c-5,0-9.9-2.4-16.8-4.3c27.5-21.6,53.1-41.6,78.9-61.8c11.2,7.4,18.2,20.9,33.6,20.9c15.4,0,22.6-13.2,33.8-21.3
				C219.1,190.3,245.1,209.8,271.1,229.2z"/>
			<path class="st1" d="M254,84.3c5,0,10,2.3,16.9,4c-10.7,10-19.5,18.1-28.3,26.3c-23.1,21.3-46.2,42.7-69.4,63.9
				c-8.9,8.1-18.2,8.5-26.7,0.8c-31.9-28.9-63.6-58-95.3-87c-0.8-0.7-1.4-1.6-3.4-3.9c5.9-1.6,10.9-4,15.8-4.1
				C127.1,84,190.6,84,254,84.3z"/>
			<path class="st1" d="M120.7,165.9c-25.5,20.3-50.4,40.1-77.3,61.6c0-45,0-87.8,0-133C70,119.1,95,142.2,120.7,165.9z"/>
		</g>
		<g>
		</g>
	</g>
</g>
</svg>
