<?xml version="1.0" encoding="utf-8"?>
<!-- Generator: Adobe Illustrator 21.1.0, SVG Export Plug-In . SVG Version: 6.00 Build 0)  -->
<svg version="1.1" id="Layer_1" xmlns="http://www.w3.org/2000/svg" xmlns:xlink="http://www.w3.org/1999/xlink" x="0px" y="0px"
	 viewBox="0 0 320 320" style="enable-background:new 0 0 320 320;" xml:space="preserve">
<style type="text/css">
	.st0{fill:#63C250;}
</style>
<g>
	<g id="XMLID_1_">
		<g>
			<path class="st0" d="M269.8,138.2c0,18.2,0.2,36.4-0.2,54.6c-0.2,11.8-0.5,23.7-4.1,35.2c-6.8,21.9-26.2,37.7-49,40.1
				c-25.4,2.7-50.9,1.7-76.3,1.6c-12.3,0-24.7,0.2-37-1.8c-21.4-3.6-37.3-14.5-46-34.8c-3.6-8.5-4.9-17.6-5.4-26.7
				c-0.9-15.6-0.9-30.9-0.8-46.1c0-15-0.2-29.9,0.7-44.9c0.8-13.3,3.2-26.2,10.9-37.5c10-14.6,24.2-22.4,41.5-24.9
				c11.2-1.6,22.6-1.8,33.9-1.8c17.9,0,35.8-0.2,53.7,0.1c11.4,0.2,22.8,0.5,34,3.5c22.8,6.1,39.7,25.8,42.3,49.2
				C269.3,115.4,269.8,126.8,269.8,138.2z M249.6,197.6c0.1-12.3-0.1-24.8-0.1-42.8c-0.4-12.3,0.9-30.1-1.2-47.8
				c-2.1-16.9-12.2-28.8-28.6-33.3c-7.1-2-14.4-2.4-21.6-2.4c-23.3-0.2-46.6-0.1-69.9-0.1c-7.2,0-14.3,0.2-21.4,1.4
				c-16,2.5-27.4,10.7-32.4,26.7c-2.4,7.5-2.9,15.3-2.9,23.1c-0.2,23.1-0.1,46.2-0.1,69.2c0,8.4,0.2,16.8,1.9,25.1
				c2.5,12.6,9,22.1,20.9,27.7c9.4,4.5,19.5,4.9,29.6,5c24.2,0.3,48.5,0.1,72.7-0.1c5.9-0.1,11.8-0.3,17.7-1.3
				c17.3-2.8,28.8-12.1,33.2-29.4C249.2,211.7,249.5,204.6,249.6,197.6z"/>
			<path class="st0" d="M218.7,89.1c7.2,0,13,5.8,13,13.1c0,7.5-6,13.5-13.4,13.4c-7.2-0.1-13.1-6.2-13.1-13.5
				C205.2,94.9,211.3,89.1,218.7,89.1z"/>
			<path class="st0" d="M160.6,104.1c30.8,0.1,56.1,25.5,56.1,56.3c0,31-25.5,56.3-56.5,56.3c-30.9,0-56.2-25.5-56.1-56.6
				C104.2,129.4,129.8,104.1,160.6,104.1z M196.5,160.4c0.6-19-15.9-36.1-35.9-36.2c-19.6-0.1-36.2,16.5-36.3,35.9
				c-0.1,20.2,16.9,36.3,35.8,36.5C179.8,196.8,197.2,179.8,196.5,160.4z"/>
		</g>
		<g>
		</g>
	</g>
</g>
</svg>
