<?xml version="1.0" encoding="utf-8"?>
<!-- Generator: Adobe Illustrator 21.1.0, SVG Export Plug-In . SVG Version: 6.00 Build 0)  -->
<svg version="1.1" id="Layer_1" xmlns="http://www.w3.org/2000/svg" xmlns:xlink="http://www.w3.org/1999/xlink" x="0px" y="0px"
	 viewBox="0 0 1280 1280" style="enable-background:new 0 0 1280 1280;" xml:space="preserve">
<style type="text/css">
	.st0{fill:#81DD6B;}
	.st1{fill:#63C250;}
</style>
<g>
	<g id="XMLID_1_">
		<g>
			<path class="st0" d="M972.5,1173.5c1.5,1.3-8.4,6.5-7,8c-27.2-21.6-48.9-40.9-73.9-56h9.9c-0.6-0.9-1.5-8.1-2-9
				c-0.2-0.4-0.4-0.7-0.6-1.1C927,1131.4,949.4,1152.3,972.5,1173.5z"/>
			<path class="st1" d="M891.6,1125.5c-1.7-1-3.4-2-5.1-3c-0.8-0.5,9-9,9-9c1.1,0.6,2.3,1.2,3.4,1.9c0.2,0.4,0.4,0.7,0.6,1.1
				c0.5,0.9,1.4,8.1,2,9H891.6z"/>
			<path class="st1" d="M886.4,1064.8c-4.7,19.3,2.8,34,12.4,50.6c-1.1-0.6-2.2-1.3-3.4-1.9c0,0-9.8,8.5-9,9c1.7,1,3.4,2,5.1,3h-1.1
				c-65.5-13.9-122.6-51.7-181.8-85.1c-20.4-11.5-43.1-12.7-65.5-14.6c-24-2-46.6-9.6-62.6-32.8c-19.5-28.3-14.5-44.1,15.6-50.8
				c1.1-0.3,2.4-0.3,3.5-0.6c14.6-4.6,39.6,5.7,39.9-20.8c0.3-27.9-18.5-46.3-43.1-51.8c-31.8-7.2-63.4-2.1-94.7,5
				c-40.9,9.3-81.2,14.5-121.5-4.7c-44-20.9-49.1-43.3-16.3-84.8c14.3-18.1,29.5-35.5,45.6-51.5c21-20.8,17.7-38.3-2-56.7
				c-39.9-37.2-86-62.1-131.1-88.5c-25.5-14.9-49.8-31.4-68.4-57c-26.1-35.9-20.7-65.5,15.4-85.3c18.2-10,38.1-13.6,57.9-17.7
				c38.5-7.9,46.6-28.1,25.5-65.5c-15.5-27.5-34.8-52-50.7-79.2c-21.9-37.5-17.8-59.2,17.5-78.7c22.5-12.5,26-27.6,16.8-51.7
				c-3.3-8.7-5-18.3-6.6-27.8c-8.1-49.8,12.6-70.8,54.1-54.4c32.8,13,63.4,30.6,83.8,65.1c14.4,24.3,26.8,25.8,43.2,1.2
				c37.8-56.8,79.7-51.6,105.9,14.3c10.8,27.1,17.3,57.2,21.5,86.8c5.6,39,20.3,37.4,42.3,18.1c11.3-9.9,22-20.9,34.2-29.1
				c30.7-20.8,55.1-9.5,65.5,30.4c13.9,53.6,3.9,106-6.9,158.4c-4.9,23.9-7.9,48.5-10.9,72.9c-3.4,28,8,32.7,26.2,19.3
				c21.5-15.8,41.5-24.5,64.6-3c24.6,22.9,24,53.2,17.3,82.7c-10.3,45.1-24.5,88.9-36.5,133.5c-2.8,10.4-4.1,21.4-4.9,32.3
				c-1.3,17.3,1.8,27.4,19.5,16.1c17.6-11.2,36.4-39.7,55.9-18.4c18.3,20-4.3,45.5-9.4,68.1c-11.2,49.8-12.1,50,30.7,58
				c33.1,6.1,37,33.3,35,64.3C912,984.7,896.4,1023.9,886.4,1064.8z M832,1042.6c-34.8-35.3-41.9-80-34.8-132.4
				c-17.9,13.6-5.6,34.1-21.5,47.5c-17.2-33.1-64.2-86.5-86.6-128.9c-8.9-16.9-13.9-32-11.7-43.4c4.5-22.3,34.7-62.2,44-87
				c-35,41-49.6,92.5-58.1,77.3c-23.1-41.4-44.1-84.4-68.3-124.8c-19.8-33.1-30.5-56.5-37.5-75.5c-0.6-1.7,29.1-72.1,28-74
				c-10.8,4.8-23.4,56.9-33.2,63.1c-29-38-41.9-87.9-69.5-127.7c-10.3,10.2,6.3,21.2-3.2,30.8c-21.5-6.9-43.5-16.5-74.9-5.8
				c16.3,3,25.1,5.8,34,6.1c39.3,1.2,65.2,23.8,81.8,64.9c26.6,66.1,68.8,133,103.8,196.5c16,29,30.7,54.1,49.4,86.2
				c1.9,3.3,3.9,6.6,5.9,9.9c-22.7-10.1-48.6-10.4-95.3-5c44.8,0,79.4,3.8,102.7,16.9c20.9,32.7,43.6,64.3,58.6,103.1
				c-34.1,0.6-34.1,0.6-55,14.3C763.8,927.8,788.3,1003.7,832,1042.6z"/>
			<path class="st0" d="M687.5,837.5c1.9-0.8-1.9-7.3-0.1-8.2l1.8-0.5c22.4,42.4,69.3,95.8,86.6,128.9c15.9-13.4,3.6-33.9,21.5-47.5
				c-7.2,52.4,0,97.1,34.8,132.4c-43.7-38.9-68.2-114.8-141.1-87.8c20.9-13.6,20.9-13.6,55-14.3c-15-38.8-37.8-70.5-58.6-103.1
				C687.3,837.4,687.4,837.5,687.5,837.5z"/>
			<path class="st0" d="M687.4,829.3c-2.5-1.4-5-2.7-7.6-3.8c-2-3.3-4-6.5-5.9-9.9c-18.7-32-33.4-57.2-49.4-86.2
				c-35-63.5-77.2-130.4-103.8-196.5c-16.6-41.2-42.5-63.7-81.8-64.9c-8.9-0.3-17.7-3.1-34-6.1c31.3-10.7,53.4-1.2,74.9,5.8
				c9.5-9.6-7.2-20.6,3.2-30.8c27.6,39.7,40.5,89.7,69.5,127.7c9.7-6.3,22.4-58.3,33.2-63.1c1.1,1.9-28.6,72.3-28,74
				c7,19,17.7,42.4,37.5,75.5c24.2,40.5,45.2,83.5,68.3,124.8c8.5,15.2,23.1-36.3,58.1-77.3c-9.3,24.8-39.5,64.7-44,87
				c-2.3,11.4,2.7,26.5,11.7,43.4L687.4,829.3z"/>
			<path class="st0" d="M687.2,837.4c-23.3-13.1-57.9-16.9-102.7-16.9c46.7-5.4,72.6-5.1,95.3,5
				C682.3,829.5,684.7,833.4,687.2,837.4z"/>
			<path class="st0" d="M687.4,829.3c-1.8,0.8,1.9,7.3,0.1,8.2c-0.1,0-0.2-0.1-0.2-0.1c-2.5-3.9-5-7.9-7.4-11.8
				C682.4,826.7,684.9,827.9,687.4,829.3z"/>
		</g>
		<g>
		</g>
	</g>
</g>
</svg>
