<?xml version="1.0" encoding="utf-8"?>
<!-- Generator: Adobe Illustrator 21.1.0, SVG Export Plug-In . SVG Version: 6.00 Build 0)  -->
<svg version="1.1" xmlns="http://www.w3.org/2000/svg" xmlns:xlink="http://www.w3.org/1999/xlink" x="0px" y="0px"
	 viewBox="0 0 1280 1280" style="enable-background:new 0 0 1280 1280;" xml:space="preserve">
<style type="text/css">
	.st0{display:none;}
	.st1{display:inline;}
	.st2{fill:#FFFFFF;}
	.st3{fill:#63C250;}
	.st4{fill:#81DD6B;}
</style>
<g id="Layer_1" class="st0">
	<g id="XMLID_1_" class="st1">
		<g>
			<path class="st2" d="M324.8,1067.7c-18.2,37.4-36.4,74.8-54.6,112.2c-3.5-2.5-6.9-5.1-10.4-7.6c20.1-35.8,37.4-73.8,61.5-106.8
				c-0.2,2-0.3,4-0.5,6.1C322.1,1070.3,323.5,1069,324.8,1067.7z"/>
			<path class="st2" d="M583.9,693.3c-3.9-0.7-7.8-1.4-11.6-2.1C577,685.2,580.2,691.5,583.9,693.3z"/>
			<path class="st2" d="M529.6,778.8c-4.8,10.8,11.8,6.3,8.3,16.2C536.4,788.6,512.2,798.4,529.6,778.8L529.6,778.8z"/>
			<path class="st2" d="M453,918.7c2.5,5,2.1,8.2-2.6,8.6c0,0,0,0,0,0c-0.4,0-0.9,0-1.3,0.1c0,0-0.1,0-0.1,0
				C450.4,924.5,451.7,921.6,453,918.7z"/>
			<path class="st2" d="M548.1,923c-32.8-5.2-65.2,2.8-97.7,4.3c4.7-0.5,5.2-3.6,2.6-8.6v0C485,912.3,516.7,910.9,548.1,923z"/>
			<path class="st2" d="M661.6,775c-43-6.3-83.3,7.4-123.7,19.9c3.5-9.8-13.2-5.4-8.3-16.2c32.4,7.1,62.4-13.1,94.3-11.3
				C636.5,768.2,649.3,765.4,661.6,775z"/>
			<path class="st2" d="M583.9,693.3c-3.8-1.8-6.9-8.1-11.6-2.1h0c-11.6-49.5-31.8-94.4-55.3-137.6C552,592,565.3,644.3,583.9,693.3
				z"/>
			<path class="st2" d="M929.7,333.2c-10.5,15.1-20.2,31.4-37.6,36.9C901.1,352.9,914.4,341.6,929.7,333.2z"/>
			<path class="st2" d="M745.2,500c4.7-6.4,7.4,2.5,11.4,2C751.5,511.4,749.5,497.2,745.2,500z"/>
			<path class="st2" d="M756.6,501.9c-4,0.6-6.7-8.4-11.4-2l0,0h0c10-58.9-2-114-23-167.6C753.3,383.8,760.3,441.5,756.6,501.9z"/>
			<path class="st2" d="M687.1,592.6c2.2,20.6-15.3,18.4-23.2,27.3C670.1,609,683.3,606.2,687.1,592.6L687.1,592.6L687.1,592.6z"/>
			<path class="st2" d="M748.9,590.8c15.8,0.8,31.7-0.3,47.6,4.1c-44.9,4.8-89.7,7.7-132.6,25c7.9-8.9,25.4-6.6,23.2-27.3
				C707.9,607.2,728.1,589.7,748.9,590.8z"/>
			<path class="st2" d="M537.9,794.9c-36.6,6.6-53.1,43-75.5,70.3c-13.2,16-24.9,33.7-37.3,50.6c10.3,11.1,19.3,3.4,28,2.9
				c-1.3,2.9-2.7,5.8-4,8.7c-50,2.1-65.7,55-95.3,87.8c10.5-31.4,29-56.4,47.6-80.2c19.5-24.9,20.9-50.5,13.5-79.9
				c-4.4-17.5-8.5-35-8.1-54.2c6.8,28.4,13.7,56.8,21.8,90.3c36-46.1,68.6-88,101.4-129.6c10.6-13.5,21.8-26.3,32.6-39.5
				c7-8.6,14.7-17,9.8-30.8c3.9,0.7,7.8,1.4,11.6,2.1C633.6,638.2,683.3,583,733.2,528c7.1-7.8,10.4-17.3,12.1-28l0,0
				c4.2-2.7,6.3,11.4,11.4,2c34.8-35.3,69.2-71,104.4-105.8c9.6-9.5,9.3-36,30.9-26c-9.9,20.5-29.6,30.6-42.5,51.6
				c23.2-3.6,43.5-6.8,67.9-10.6c-22.5,18.5-45.9,11.3-66.3,21.1c-31.8,15.2-54.5,42.8-78.9,68.6c-28.6,30.3-56.7,61.1-85,91.7h0
				c-3.8,13.6-17,16.4-23.2,27.3c-44.8,53-89.6,105.9-134.3,158.9h0C512.2,798.4,536.4,788.6,537.9,794.9z"/>
			<path class="st3" d="M892,370.2c0,0,0-0.1,0.1-0.1c17.4-5.4,27.1-21.7,37.6-36.9c-15.3,8.4-28.5,19.7-37.6,36.9
				C892,370.1,892,370.1,892,370.2c-0.1-0.1-0.1-0.1-0.1,0c-21.6-10-21.3,16.5-30.9,26c-35.2,34.7-69.7,70.4-104.4,105.8
				c3.7-60.5-3.4-118.1-34.4-169.5c21,53.5,33,108.6,23,167.6h0c-1.7,10.7-5,20.2-12.1,28c-49.8,55-99.5,110.1-149.3,165.2
				C565.3,644.3,552,592,517,553.6c23.4,43.2,43.6,88.1,55.3,137.6h0c4.9,13.8-2.8,22.2-9.8,30.8c-10.8,13.2-22,26.1-32.6,39.5
				c-32.8,41.7-65.4,83.5-101.4,129.6c-8.1-33.4-14.9-61.8-21.8-90.3c-0.3,19.2,3.8,36.7,8.1,54.2c7.3,29.4,6,55-13.5,79.9
				c-18.6,23.7-37.2,48.8-47.6,80.2c29.6-32.9,45.3-85.7,95.3-87.8c0,0,0.1,0,0.1,0c0.5,0,0.9,0,1.3-0.1c0,0,0,0,0,0
				c32.5-1.4,64.8-9.4,97.7-4.3c-31.4-12.1-63.1-10.8-95-4.4v0c-8.7,0.5-17.6,8.3-28-2.9c12.4-16.9,24.2-34.5,37.3-50.6
				c22.4-27.3,38.9-63.7,75.5-70.3c40.4-12.5,80.7-26.2,123.7-19.9c-12.3-9.6-25.1-6.9-37.7-7.6c-32-1.8-61.9,18.4-94.3,11.3
				c44.8-53,89.5-105.9,134.3-158.9c42.9-17.3,87.8-20.2,132.6-25c-15.9-4.4-31.8-3.3-47.6-4.1c-20.8-1-41,16.4-61.8,1.8v0
				c28.3-30.6,56.5-61.4,85-91.7c24.3-25.8,47.1-53.4,78.9-68.6c20.5-9.8,43.8-2.6,66.3-21.1c-24.4,3.8-44.8,7-67.9,10.6
				c12.9-21.1,32.7-31.1,42.5-51.6C892,370.2,892,370.2,892,370.2z M1047.6,223.7c6.2,47.9-8.3,89.1-32,126.7
				c-21.3,33.7-21.2,35.2,11,52.4c44.6,23.8,51.2,65.8,16,106.5c-22.1,25.6-50.4,39.2-78.2,53.9c-25.9,13.7-27.3,23.5-7,46.3
				c9.9,11.2,21.6,20.4,31.3,31.8c27,31.4,23.2,63.4-11.3,82.5c-25,13.9-51.7,23.3-80,23.6c-31.4,0.3-62.7,0-94,1.9
				c-11.2,0.7-27.3-4.8-32.6,10.8c-5.3,15.2,9.6,23.7,16.7,34c23.8,34.2,13.7,76.1-22.1,89.9c-15.1,5.8-30.4,8.2-46.4,5.9
				c-30.2-4.4-60.5-8.2-90.8-11.6c-10-1.1-20.3-1.1-30.4-0.3c-8.2,0.7-18.9,0.8-22.5,9.7c-4.2,10.5,6.1,16.5,11.4,23.4
				c11.5,14.8,31.7,28.9,22.1,50.5c-9.8,22.1-31.4,8.8-48.2,7.3c-5.5-0.5-10.9-2.3-16.4-3c-37.2-4.9-40.2-1.5-35,41.5
				c3.2,26.6-4.7,43.1-27.7,50.8c-34,11.6-67.7,4.1-101.7,1.6c-18.4-1.3-38.7-12.6-55,8c-1.4-0.3-2.6-1.1-3.5-2.2c0,0,0,0,0,0
				c-9-44.3-5.3-88.2,6-130.8c14-53.2,23.1-106.1,13.6-162.1c-4.9-29.1,1.9-55.4,22.2-75.8c14.4-14.4,24.8-11.5,32.5,7.8
				c2.7,6.8,4.4,14.2,6.3,21.4c3.6,13.3,5.3,30.2,19.5,32c14.7,1.9,22.4-13.4,29.1-26.1c12.1-22.9,8-47.8,3.8-72.2
				c-6.4-37.4-22.9-70.5-33-106.3c-10.3-36.7-14.2-73.7-5.8-111.3c6.7-30,20.8-38.2,45.8-27c25.3,11.3,45.9,31.9,67.9,49.7
				c19.5,15.9,32.4,13.5,43.8-12.6c19.5-44.8,29.4-92.9,40.2-140.9c7.7-34.5,14.2-69.4,30.4-100.2c25.6-48.8,56.7-50.1,83.1-2.4
				c9.4,17,15.7,36.5,23.2,54.9c14.8,36.5,32.8,40.9,56.9,11.4c16.6-20.2,30.6-43.2,46.4-64.3c31.3-41.9,49-42.3,79.3,0.8
				c9.9,14.1,18.5,15.6,30.6,7.3c14.4-9.8,29.1-18.3,45.3-24C1031.6,186.7,1044.2,197,1047.6,223.7z"/>
		</g>
		<g>
		</g>
	</g>
</g>
<g id="Layer_3">
	<g id="XMLID_2_">
		<g>
			<path class="st3" d="M1199.8,683.2c31.8,47.1,20.5,83.1-30.5,87.1c-34.2,2.7-52.9,10.3-57.4,54.8c-3.7,35.1-30.8,39-56,31
				c-26.7-8.4-52.1-22-78.9-29.8c-44.7-13-51.6-5.6-49.9,47.4c0.7,21.4,3,42.9,2.3,64.2c-1.6,54-32.5,75.7-74.8,51.7
				c-30-17-52.3-46.3-76.5-72.4c-28.1-30.2-55.7-61.2-85.2-89.6c-36.2-34.9-50.9-30.3-70.8,18.1c-9.1,22.2-15.6,46.2-26.9,66.6
				c-20.8,37.6-40.6,38.2-66.2,5.7c-36.9-46.9-46.9-106.3-52.8-166c-3.6-36.7-13.9-69-30.6-98.5c-10.9-19.2-30.7-27.8-49.1-20.2
				c-21,8.6-11.4,30.5-7.8,47.9c2.8,13.7,7,28-4.5,38.4c-11.9,10.8-24.3,6.5-37.2-0.4c-19.2-10.2-35.2-26.6-40.4-48.3
				c-15.7-65.2-57.9-104.8-97-148.2c-25.1-27.9-44.8-60.3-56.5-98.9c4-1.8,8-3.7,12-5.5c31.5-25.1,62.2-51.6,94.5-75.1
				c44.8-32.5,65.3-27.3,95.4,21.4c7.3,11.8,16.1,16.7,27.1,11.4c9.6-4.6,18.5-11.3,27-18.4c16.6-13.8,30.8-43.4,53.1-30
				c22.3,13.3,7.8,41.1,4,62.8c-3.6,20.4,3.3,25.1,19.1,19.9c14.2-4.6,26.8-11.9,38.5-22.6c31.2-28.4,63-55.8,94.7-83.3
				c21.7-18.9,44.3-17.7,66.6-1.9c20.7,14.7,26.4,35.9,20.3,63.5c-9,40.8,9.7,41.9,33.3,27.5c33.8-20.6,66.3-44,99.5-65.6
				c24.5-16,50.8-25.6,79.2-24.9c40.4,0.9,54.9,22.4,46,68c-16.8,86.6-16.8,86.3,58.8,83.1c18.3-0.8,37.3-1.5,54.9,3.2
				c44.8,11.9,61.7,55.3,36.4,99.9c-20.1,35.6-16.7,53.1,18.7,64.3C1161.7,630.7,1181.9,656.7,1199.8,683.2z M993.8,696l0.5-1.1
				c-3.4-6.4,17.2-17-3.8-21.7c-15.6-3.5-33.8-1.8-48.2-17c20.9-11.4,43.2-10.9,60-29.9c-59.3,29.6-119.4,29.8-180,10.8
				c-35.2-13.5-74.5-9.7-106.9-34.6c40.2-23,83.7-39.8,113.6-82.9c-34.9,32.2-79.4,43.4-115.2,73.6C631.2,608,560.1,558.9,476.3,545
				c18.7-18.2,36-13.6,48.9-35.2c-76.3,41.6-138.6,1.5-210.4-25.3c28.3-20.7,54.5-26.7,78-54c-44.6,18.1-80.8,48.6-126.5,43.2
				c-3.4-0.8-6.9-1.4-10.6-1.9c3.6,0.8,7.1,1.5,10.6,1.9c48.4,11.3,67.9,55.6,86.7,101.4c-3.3-19-6.7-38-11-62.3
				c53,17.6,101.4,37.8,151.3,48.9c45.6,10.1,74.7,32.2,77.9,89.1c0.2,35.3,0.3,70.6,0.5,105.9c12.1-36,12.4-72.2,5.9-108.7
				c-1.3-19.1-11.9-36.6-6.8-62.1c76.7,27.6,156.5,34.3,231.5,65.8c38.9,39.6,46.7,97.8,64.4,150.3c-7-51-15.8-100.9-47-150.6
				c0.1-0.1,0.1-0.1,0.2-0.2C884.6,666.2,941.8,666.6,993.8,696z"/>
			<path class="st4" d="M994.3,694.9l-0.5,1.1c-52-29.4-109.2-29.9-173.9-44.7c2.1-2.3,3.1-6.5,2.3-14.1
				c60.7,19,120.8,18.8,180-10.8c-16.9,19-39.1,18.5-60,29.9c14.4,15.1,32.5,13.5,48.2,17C1011.5,677.9,990.9,688.5,994.3,694.9z"/>
			<path class="st4" d="M819.7,651.5c31.1,49.7,40,99.6,47,150.6c-17.7-52.5-25.5-110.7-64.4-150.3
				C808.8,653,815.9,655.3,819.7,651.5z"/>
			<path class="st4" d="M822.3,637.2c0.8,7.6-0.2,11.8-2.3,14.1c-0.1,0-0.2,0-0.4-0.1c0,0.1,0.1,0.2,0.2,0.3
				c-3.8,3.8-11,1.5-17.4,0.3C810.1,649.1,819,648.3,822.3,637.2z"/>
			<path class="st4" d="M822.3,637.2c-3.3,11.1-12.1,11.9-20,14.7c-75-31.5-154.8-38.2-231.5-65.8c-5.1,25.5,5.6,43,6.8,62.1
				c-2.1,1.2-4.2,2.1-6.4,2.7c-3.2-57-32.3-79-77.9-89.1c-49.8-11.1-98.2-31.3-151.3-48.9c4.3,24.3,7.6,43.3,11,62.3
				c-18.8-45.8-38.3-90.2-86.7-101.4c45.7,5.4,81.9-25.1,126.5-43.2c-23.5,27.2-49.7,33.3-78,54c71.9,26.8,134.2,66.8,210.4,25.3
				c-13,21.6-30.2,17-48.9,35.2c83.9,13.9,155,63,237.5,48.3c0.5,3.1,1.1,6.2,1.6,9.3C747.8,627.5,787.1,623.7,822.3,637.2z"/>
			<path class="st4" d="M829,519.7c-29.9,43.1-73.4,59.9-113.6,82.9c2.1-3.7,1.6-6.8-1.6-9.3C749.6,563.1,794,551.9,829,519.7z"/>
			<path class="st4" d="M713.7,593.3c3.2,2.5,3.7,5.6,1.6,9.3C714.8,599.5,714.3,596.4,713.7,593.3z"/>
			<path class="st4" d="M577.6,648.1c6.5,36.4,6.2,72.6-5.9,108.7c-0.2-35.3-0.4-70.6-0.5-105.9c0.2,0.8,1.1,1.2,2.8,1.4
				C575.7,652.4,576.9,651,577.6,648.1z"/>
			<path class="st4" d="M577.6,648.1c-0.7,2.9-1.9,4.2-3.6,4.1c-1.7-0.1-2.7-0.6-2.8-1.4C573.4,650.2,575.5,649.3,577.6,648.1z"/>
			<path class="st4" d="M165.1,418.5c-4,1.8-8,3.7-12,5.5C155.6,417.7,159.6,415.9,165.1,418.5z"/>
			<path class="st4" d="M165.1,418.5c-5.5-2.6-9.5-0.7-12,5.5c-36.6-20.7-73.2-41.3-109.8-62c1.7-4.4,3.4-8.8,5.1-13.2
				C89.8,365.2,125.7,396.6,165.1,418.5z"/>
		</g>
		<g>
		</g>
	</g>
</g>
</svg>
