<?xml version="1.0" encoding="utf-8"?>
<!-- Generator: Adobe Illustrator 21.1.0, SVG Export Plug-In . SVG Version: 6.00 Build 0)  -->
<svg version="1.1" xmlns="http://www.w3.org/2000/svg" xmlns:xlink="http://www.w3.org/1999/xlink" x="0px" y="0px"
	 viewBox="0 0 1280 1280" style="enable-background:new 0 0 1280 1280;" xml:space="preserve">
<style type="text/css">
	.st0{display:none;}
	.st1{display:inline;fill:#319E16;stroke:#000000;stroke-width:0.5;stroke-linecap:round;stroke-linejoin:round;}
	.st2{fill:#63C250;}
	.st3{fill:#81DD6B;}
</style>
<g id="Layer_2" class="st0">
	<rect x="25.5" y="64.5" class="st1" width="1105" height="1105"/>
</g>
<g id="Layer_1">
	<g id="XMLID_1_">
		<g>
			<path class="st2" d="M449.1,927.4c0.5,0,0.9,0,1.3-0.1c0,0,0,0,0,0c32.5-1.4,64.8-9.4,97.7-4.3c-31.4-12.1-63.1-10.8-95-4.4v0
				c-8.7,0.5-17.6,8.3-28-2.9c12.4-16.9,24.2-34.5,37.3-50.6c22.4-27.3,38.9-63.7,75.5-70.3c40.4-12.5,80.7-26.2,123.7-19.9
				c-12.3-9.6-25.1-6.9-37.7-7.6c-32-1.8-61.9,18.4-94.3,11.3c44.8-53,89.5-105.9,134.3-158.9c42.9-17.3,87.8-20.2,132.6-25
				c-15.9-4.4-31.8-3.3-47.6-4.1c-20.8-1-41,16.4-61.8,1.8v0c28.3-30.6,56.5-61.4,85-91.7c24.3-25.8,47.1-53.4,78.9-68.6
				c20.5-9.8,43.8-2.6,66.3-21.1c-24.4,3.8-44.8,7-67.9,10.6c12.9-21.1,32.7-31.1,42.5-51.6c0,0,0.1,0,0.1,0l-0.1-0.1c0,0,0,0,0,0
				c-21.6-10-21.3,16.5-30.9,26c-35.2,34.7-69.7,70.4-104.4,105.8c3.7-60.5-3.4-118.1-34.4-169.5c21,53.5,33,108.6,23,167.6h0
				c-1.7,10.7-5,20.2-12.1,28c-49.8,55-99.5,110.1-149.3,165.2C565.3,644.3,552,592,517,553.6c23.4,43.2,43.6,88.1,55.3,137.6h0
				c4.9,13.8-2.8,22.2-9.8,30.8c-10.8,13.2-22,26.1-32.6,39.5c-32.8,41.7-65.4,83.5-101.4,129.6c-8.1-33.4-14.9-61.8-21.8-90.3
				c-0.3,19.2,3.8,36.7,8.1,54.2c7.3,29.4,6,55-13.5,79.9c-18.6,23.7-37.2,48.8-47.6,80.2C383.3,982.3,399,929.4,449.1,927.4
				C449,927.4,449.1,927.4,449.1,927.4z M1047.6,223.7c6.2,47.9-8.3,89.1-32,126.7c-21.3,33.7-21.2,35.2,11,52.4
				c44.6,23.8,51.2,65.8,16,106.5c-22.1,25.6-50.4,39.2-78.2,53.9c-25.9,13.7-27.3,23.5-7,46.3c9.9,11.2,21.6,20.4,31.3,31.8
				c27,31.4,23.2,63.4-11.3,82.5c-25,13.9-51.7,23.3-80,23.6c-31.4,0.3-62.7,0-94,1.9c-11.2,0.7-27.3-4.8-32.6,10.8
				c-5.3,15.2,9.6,23.7,16.7,34c23.8,34.2,13.7,76.1-22.1,89.9c-15.1,5.8-30.4,8.2-46.4,5.9c-30.2-4.4-60.5-8.2-90.8-11.6
				c-10-1.1-20.3-1.1-30.4-0.3c-8.2,0.7-18.9,0.8-22.5,9.7c-4.2,10.5,6.1,16.5,11.4,23.4c11.5,14.8,31.7,28.9,22.1,50.5
				c-9.8,22.1-31.4,8.8-48.2,7.3c-5.5-0.5-10.9-2.3-16.4-3c-37.2-4.9-40.2-1.5-35,41.5c3.2,26.6-4.7,43.1-27.7,50.8
				c-34,11.6-67.7,4.1-101.7,1.6c-18.4-1.3-38.7-12.6-55,8c-1.4-0.3-2.6-1.1-3.5-2.2c0,0,0,0,0,0c-9-44.3-5.3-88.2,6-130.8
				c14-53.2,23.1-106.1,13.6-162.1c-4.9-29.1,1.9-55.4,22.2-75.8c14.4-14.4,24.8-11.5,32.5,7.8c2.7,6.8,4.4,14.2,6.3,21.4
				c3.6,13.3,5.3,30.2,19.5,32c14.7,1.9,22.4-13.4,29.1-26.1c12.1-22.9,8-47.8,3.8-72.2c-6.4-37.4-22.9-70.5-33-106.3
				c-10.3-36.7-14.2-73.7-5.8-111.3c6.7-30,20.8-38.2,45.8-27c25.3,11.3,45.9,31.9,67.9,49.7c19.5,15.9,32.4,13.5,43.8-12.6
				c19.5-44.8,29.4-92.9,40.2-140.9c7.7-34.5,14.2-69.4,30.4-100.2c25.6-48.8,56.7-50.1,83.1-2.4c9.4,17,15.7,36.5,23.2,54.9
				c14.8,36.5,32.8,40.9,56.9,11.4c16.6-20.2,30.6-43.2,46.4-64.3c31.3-41.9,49-42.3,79.3,0.8c9.9,14.1,18.5,15.6,30.6,7.3
				c14.4-9.8,29.1-18.3,45.3-24C1031.6,186.7,1044.2,197,1047.6,223.7z"/>
			<path class="st3" d="M324.8,1067.7c-1.4,1.3-2.7,2.6-4.1,3.8c0.2-2,0.3-4,0.5-6.1c0,0,0,0,0,0
				C322.3,1066.7,323.5,1067.4,324.8,1067.7z"/>
			<path class="st3" d="M849.4,421.8c23.2-3.6,43.5-6.8,67.9-10.6c-22.5,18.5-45.9,11.3-66.3,21.1c-31.8,15.2-54.5,42.8-78.9,68.6
				c-28.6,30.3-56.7,61.1-85,91.7h0c-3.8,13.6-17,16.4-23.2,27.3c-44.8,53-89.6,105.9-134.3,158.9h0c-17.4,19.6,6.9,9.9,8.4,16.2
				c-36.6,6.6-53.1,43-75.5,70.3c-13.2,16-24.9,33.7-37.3,50.6c10.3,11.1,19.3,3.4,28,2.9c-1.3,2.9-2.7,5.8-4,8.7
				c-50,2.1-65.7,55-95.3,87.8c10.5-31.4,29-56.4,47.6-80.2c19.5-24.9,20.9-50.5,13.5-79.9c-4.4-17.5-8.5-35-8.1-54.2
				c6.8,28.4,13.7,56.8,21.8,90.3c36-46.1,68.6-88,101.4-129.6c10.6-13.5,21.8-26.3,32.6-39.5c7-8.6,14.7-17,9.8-30.8
				c3.9,0.7,7.8,1.4,11.6,2.1C633.6,638.2,683.3,583,733.2,528c7.1-7.8,10.4-17.3,12.1-28l0,0c4.2-2.7,6.3,11.4,11.4,2
				c34.8-35.3,69.2-71,104.4-105.8c9.6-9.5,9.3-36,30.9-26C882,390.7,862.3,400.8,849.4,421.8z"/>
			<path class="st3" d="M748.9,590.8c15.8,0.8,31.7-0.3,47.6,4.1c-44.9,4.8-89.7,7.7-132.6,25c7.9-8.9,25.4-6.6,23.2-27.3
				C707.9,607.2,728.1,589.7,748.9,590.8z"/>
			<path class="st3" d="M722.2,332.4c31,51.4,38.1,109,34.4,169.5c-4,0.6-6.7-8.4-11.4-2l0,0h0C755.2,441,743.2,386,722.2,332.4z"/>
			<path class="st3" d="M745.2,500c4.7-6.4,7.4,2.5,11.4,2C751.5,511.4,749.5,497.2,745.2,500z"/>
			<path class="st3" d="M687.1,592.6c2.2,20.6-15.3,18.4-23.2,27.3C670.1,609,683.3,606.2,687.1,592.6L687.1,592.6L687.1,592.6z"/>
			<path class="st3" d="M661.6,775c-43-6.3-83.3,7.4-123.7,19.9c3.5-9.8-13.2-5.4-8.3-16.2c32.4,7.1,62.4-13.1,94.3-11.3
				C636.5,768.2,649.3,765.4,661.6,775z"/>
			<path class="st3" d="M583.9,693.3c-3.9-0.7-7.8-1.4-11.6-2.1C577,685.2,580.2,691.5,583.9,693.3z"/>
			<path class="st3" d="M583.9,693.3c-3.8-1.8-6.9-8.1-11.6-2.1h0c-11.6-49.5-31.8-94.4-55.3-137.6C552,592,565.3,644.3,583.9,693.3
				z"/>
			<path class="st3" d="M529.6,778.8c-4.8,10.8,11.8,6.3,8.3,16.2C536.4,788.6,512.2,798.4,529.6,778.8L529.6,778.8z"/>
			<path class="st3" d="M548.1,923c-32.8-5.2-65.2,2.8-97.7,4.3c4.7-0.5,5.2-3.6,2.6-8.6v0C485,912.3,516.7,910.9,548.1,923z"/>
			<path class="st3" d="M453,918.7c2.5,5,2.1,8.2-2.6,8.6c0,0,0,0,0,0c-0.4,0-0.9,0-1.3,0.1c0,0-0.1,0-0.1,0
				C450.4,924.5,451.7,921.6,453,918.7z"/>
			<path class="st3" d="M324.8,1067.7c-18.2,37.4-36.4,74.8-54.6,112.2c-3.5-2.5-6.9-5.1-10.4-7.6c20.1-35.8,37.4-73.8,61.5-106.8
				c-0.2,2-0.3,4-0.5,6.1C322.1,1070.3,323.5,1069,324.8,1067.7z"/>
		</g>
		<g>
		</g>
	</g>
</g>
</svg>
