<?xml version="1.0" encoding="utf-8"?>
<!-- Generator: Adobe Illustrator 21.1.0, SVG Export Plug-In . SVG Version: 6.00 Build 0)  -->
<svg version="1.1" id="Layer_2" xmlns="http://www.w3.org/2000/svg" xmlns:xlink="http://www.w3.org/1999/xlink" x="0px" y="0px"
	 viewBox="0 0 320 320" style="enable-background:new 0 0 320 320;" xml:space="preserve">
<style type="text/css">
	.st0{fill:#63C250;}
	.st1{fill:#FFFFFF;}
</style>
<g>
	<g id="XMLID_1_">
		<g>
			<path class="st0" d="M258.1,56.3c5.7,1.1,8.8,4.8,9.3,10.5c0.2,2.1,0.2,4.1,0.2,6.2c0,29.6,0,59.2,0,88.8c0,29.7,0,59.5,0,89.2
				c0,1.6-0.1,3-0.2,4.3c-0.1,0.6-0.2,1.3-0.2,1.9c-0.9,5.5-3.5,8.3-8.8,9.4c-0.6,0.1-1.1,0.2-1.7,0.3c-1.6,0.2-3.3,0.3-5.3,0.3
				c-60,0-119.9,0-179.9,0c-2.1,0-4.1,0-6.2-0.3c-0.7-0.1-1.4-0.2-2-0.4c-3.9-1.1-6.4-3.6-7.6-7.4c-0.2-0.6-0.4-1.3-0.5-2
				c-0.3-1.9-0.4-3.8-0.4-5.7c0-60,0-119.9,0-179.9c0-1,0-1.9,0-2.9c0.5-8.2,4.7-12.4,13-12.8c3.1-0.1,6.1,0,9.2,0
				c0.6,0,1.2,0,1.8,0c57.3,0,114.5,0,171.8,0C253,55.7,255.6,55.8,258.1,56.3z M262.2,251.9c0-60.1,0-120.3,0-180.4
				c0-5.9-1-8.5-4.7-9.5c-0.6-0.2-1.4-0.3-2.2-0.4c-0.4,0-0.8-0.1-1.3-0.1c-0.7,0-1.4,0-2.2,0c-30.1,0-60.1,0-90.2,0
				c-30.6,0-61-0.1-91.6,0c0,0-0.1,0-0.1,0s-0.1,0-0.1,0c-0.4,0-0.9,0-1.3,0c-1.9,0.1-3.5,0.3-4.6,0.9c-0.1,0-0.2,0.1-0.3,0.1
				c-2.5,1.3-3.3,3.8-3.3,8.6c0,60.1,0,120.3,0,180.4c0,7,1.5,9.4,7.2,9.9c0.2,0,0.4,0,0.6,0c0.2,0,0.4,0,0.7,0c0.4,0,0.8,0,1.3,0
				c60.8,0,121.5,0,182.3,0c0.5,0,0.9,0,1.4,0C260.4,261.4,262.2,259.2,262.2,251.9z"/>
			<path d="M267.4,255.3c-0.1,0.6-0.1,1.3-0.2,1.9C267.3,256.5,267.4,255.9,267.4,255.3z"/>
			<path d="M267.2,257.1c-0.9,5.6-3.5,8.3-8.8,9.4C263.7,265.4,266.2,262.7,267.2,257.1z"/>
			<path class="st1" d="M262.1,71.5c0,60.1,0,120.3,0,180.4c0,7.2-1.8,9.4-8.2,9.7c-0.4,0-0.9,0-1.4,0c-60.8,0-121.5,0-182.3,0
				c-0.5,0-0.9,0-1.3,0c-0.2,0-0.4,0-0.7,0c-0.2,0-0.4,0-0.6,0c-5.7-0.5-7.1-2.9-7.1-9.9c0-60.1,0-120.3,0-180.4
				c0-4.7,0.8-7.3,3.2-8.6c0.1,0,0.2-0.1,0.3-0.1c1.2-0.5,2.7-0.8,4.6-0.9c0.4,0,0.8,0,1.3,0c0,0,0.1,0,0.1,0s0.1,0,0.1,0
				c30.5,0,61.1,0,91.6,0c30.1,0,60.1,0,90.2,0c0.8,0,1.5,0,2.2,0c0.4,0,0.8,0,1.3,0.1c0.8,0.1,1.5,0.2,2.2,0.4
				C261.1,63,262.1,65.5,262.1,71.5z M233.9,233.8c0-19,0.1-37.6-0.1-56.2c-0.1-4.9-0.7-9.8-1.8-14.6c-1.6-7-4.4-13-8.6-17.7
				c-0.7-0.9-1.5-1.6-2.4-2.4c-3.8-3.4-8.6-5.9-14.5-7.3c-14.2-3.2-27.2-1.2-36.9,11.2c-0.6,0.8-1.4,1.4-2.8,2.6c0-4.2,0-7.5,0-10.9
				c0,0-0.1,0-0.1,0c0,0,0-0.1,0-0.1c-9.8,0.1-19.3,0.1-28.9,0.1c0,32,0,63.7,0,95.2c0,0,0.1,0,0.1,0c0,0,0,0.1,0,0.1
				c9.9,0,19.5,0,29.3,0c0-2.2,0-4,0-5.7c0-16.7-0.1-33.4,0-50.1c0.1-9.9,7.3-17.7,16.5-18.3c6.2-0.4,11.2,1.2,14.6,4.6
				c0.3,0.3,0.7,0.7,1,1.1c0.3,0.4,0.7,0.8,1,1.3c1.6,2.4,2.7,5.4,3.2,8.9c0.4,2.7,0.6,5.4,0.6,8.1c0.1,15.1,0,30.2,0,45.3
				c0,1.7,0.2,3.3,0.3,4.8c0,0,0.1,0,0.1,0c0,0,0,0.1,0,0.1C214.6,233.8,224.2,233.8,233.9,233.8z M118.5,104.9
				c0-1.2-0.1-2.4-0.3-3.6c-1.2-7.3-6.7-11.8-14.8-11.8c-9,0-15.1,6-15.1,14.8c0,6.5,3.1,11.5,8.3,13.8c0.4,0.2,0.8,0.4,1.3,0.5
				c1.7,0.6,3.5,0.9,5.5,1C112.2,119.7,118.5,113.7,118.5,104.9z M118.3,234.1C118.3,234.1,118.4,234.1,118.3,234.1
				c0-31.9,0-63.4,0-95.3c-9.8,0-19.1,0-28.8,0c0,0,0,0.1,0,0.1c0,0-0.1,0-0.1,0c-0.1,2.1-0.3,3.9-0.3,5.8c0,14.8,0,29.5,0,44.3
				c0,13.5-0.1,27,0.1,40.5c0,1.6,1.4,4.5,2.3,4.5C100.4,234.3,109.2,234.2,118.3,234.1C118.3,234.2,118.3,234.1,118.3,234.1z"/>
			<path d="M258.4,266.5c-0.6,0.1-1.1,0.2-1.7,0.3C257.2,266.7,257.8,266.6,258.4,266.5z"/>
			<path d="M233.8,177.6c0.2,18.6,0.1,37.2,0.1,56.2c-9.7,0-19.3,0-29.5,0c0,0,0-0.1,0-0.1c10.2,0,19.7,0,29.4,0
				c0-19,0.1-37.6-0.1-56.2c-0.1-4.9-0.7-9.9-1.8-14.6c-1.6-6.9-4.3-12.9-8.5-17.6c4.2,4.7,7,10.7,8.6,17.7
				C233.1,167.8,233.7,172.7,233.8,177.6z"/>
			<path class="st0" d="M169.7,146.9c9.7-12.4,22.7-14.4,36.9-11.2c5.8,1.3,10.6,3.8,14.4,7.2c0.8,0.8,1.6,1.5,2.4,2.4
				c4.2,4.7,6.9,10.7,8.5,17.6c1.1,4.7,1.7,9.7,1.8,14.6c0.2,18.6,0.1,37.2,0.1,56.2c-9.7,0-19.2,0-29.4,0c-0.1-1.5-0.3-3.1-0.3-4.7
				c0-15.1,0-30.2,0-45.3c0-2.7-0.2-5.4-0.6-8.1c-0.5-3.6-1.6-6.6-3.3-9c-0.3-0.4-0.6-0.9-1-1.3c-0.3-0.4-0.6-0.7-1-1.1
				c-3.4-3.4-8.5-5.1-14.7-4.7c-9.2,0.6-16.4,8.4-16.5,18.3c-0.1,16.7,0,33.4,0,50.1c0,1.8,0,3.5,0,5.7c-9.8,0-19.3,0-29.2,0
				c-0.1-31.6-0.1-63.2-0.1-95.2c9.6,0,19,0,28.9,0c0,3.6,0,6.7,0,11c0,0,0.1-0.1,0.1-0.1c0,0.1,0,0.1,0,0.2
				C168.3,148.2,169.1,147.6,169.7,146.9z"/>
			<path d="M183.6,159.6c6.2-0.4,11.3,1.3,14.7,4.7C194.9,160.9,189.9,159.3,183.6,159.6c-9.1,0.7-16.3,8.5-16.4,18.4
				c-0.1,16.7,0,33.4,0,50.1c0,1.7,0,3.5,0,5.7c-9.8,0-19.4,0-29.3,0c0,0,0-0.1,0-0.1c9.9,0,19.4,0,29.2,0c0-2.2,0-3.9,0-5.7
				c0-16.7-0.1-33.4,0-50.1C167.2,168,174.4,160.2,183.6,159.6z"/>
			<path d="M166.8,138.5c0,3.4,0,6.7,0,10.9c0,0-0.1,0.1-0.1,0.1c0-4.3,0-7.4,0-11C166.7,138.5,166.8,138.5,166.8,138.5z"/>
			<path class="st1" d="M161.7,61.5c-30.5,0-61.1,0-91.6,0C100.7,61.4,131.1,61.5,161.7,61.5z"/>
			<path class="st0" d="M118.3,138.8c0,31.8,0,63.3,0,95.3c-9.1,0-17.9,0.1-26.7-0.2c-0.8,0-2.3-2.9-2.3-4.5
				c-0.2-13.5-0.1-27-0.1-40.5c0-14.8,0-29.5,0-44.3c0-1.8,0.2-3.6,0.3-5.7C99.2,138.8,108.4,138.8,118.3,138.8z"/>
			<path class="st0" d="M118.2,101.3c0.2,1.1,0.3,2.3,0.3,3.6c-0.1,8.8-6.3,14.8-15.3,14.6c-1.9,0-3.8-0.3-5.4-0.9
				c-0.4-0.2-0.8-0.3-1.3-0.5c-5.1-2.3-8.2-7.3-8.2-13.7c-0.1-8.8,6.1-14.8,15.1-14.8C111.5,89.6,117,94,118.2,101.3z"/>
			<path d="M91.5,234c-0.9,0-2.3-2.9-2.3-4.5c-0.2-13.5-0.1-27-0.1-40.5c0-14.8,0-29.5,0-44.3c0-1.9,0.2-3.7,0.3-5.8
				c0,0,0.1,0,0.1,0c-0.1,2.1-0.3,3.9-0.3,5.7c0,14.8,0,29.5,0,44.3c0,13.5-0.1,27,0.1,40.5c0,1.6,1.5,4.5,2.3,4.5
				c8.8,0.3,17.6,0.2,26.7,0.2c0,0,0,0.1,0,0.1C109.2,234.2,100.4,234.3,91.5,234z"/>
			<path d="M103.5,89.6c-9,0-15.2,6-15.1,14.8c0,6.4,3.1,11.3,8.2,13.7c-5.1-2.3-8.3-7.3-8.3-13.8C88.3,95.5,94.4,89.5,103.5,89.6
				c8.1-0.1,13.5,4.4,14.7,11.8C117,94,111.5,89.6,103.5,89.6z"/>
			<path d="M76.9,55.7c-3.1,0-6.1-0.1-9.2,0C70.8,55.5,73.8,55.6,76.9,55.7z"/>
			<path class="st1" d="M68.2,261.5c0.2,0,0.4,0,0.7,0C68.7,261.6,68.4,261.6,68.2,261.5z"/>
			<path d="M63.2,266.4c-3.9-1.1-6.5-3.5-7.6-7.4C56.7,262.8,59.3,265.3,63.2,266.4z"/>
			<path class="st1" d="M60.5,71.2c0,60.1,0,120.3,0,180.4c0,7,1.5,9.4,7.1,9.9c-5.7-0.5-7.2-2.9-7.2-9.9
				C60.4,191.5,60.4,131.3,60.5,71.2c-0.1-4.8,0.7-7.4,3.2-8.6C61.3,63.9,60.5,66.5,60.5,71.2z"/>
			<path class="st1" d="M251.3,267.1c2,0,3.8-0.1,5.3-0.3c0.6-0.1,1.2-0.2,1.7-0.3c5.4-1.1,7.9-3.8,8.8-9.4c0.1-0.6,0.2-1.2,0.2-1.9
				c0.1-1.3,0.2-2.7,0.2-4.3c0.1-29.7,0-59.5,0-89.2c0-29.6,0-59.2,0-88.8c0-2.1,0-4.1-0.2-6.2c-0.5-5.7-3.6-9.4-9.3-10.5
				c-2.5-0.5-5.1-0.6-7.6-0.6c-57.3,0-114.5,0-171.8,0c-0.6,0-1.2,0-1.8,0c-3.1,0-6.1-0.2-9.2,0c-8.3,0.4-12.5,4.6-13,12.8
				c-0.1,1,0,1.9,0,2.9c0,60,0,119.9,0,179.9c0,1.9,0.1,3.8,0.4,5.7c0.1,0.7,0.3,1.4,0.5,2c1.1,3.8,3.7,6.3,7.6,7.4
				c0.6,0.2,1.3,0.3,2,0.4c2.1,0.3,4.1,0.3,6.2,0.3C131.4,267.1,191.3,267.1,251.3,267.1z M53.5,268.4c0-71.9,0-143.8,0-215.8
				c72.2,0,144.5,0,216.7,0c0,72,0,143.9,0,215.8C198,268.4,125.7,268.4,53.5,268.4z"/>
		</g>
		<g>
		</g>
	</g>
</g>
</svg>
