<?xml version="1.0" encoding="utf-8"?>
<!-- Generator: Adobe Illustrator 21.1.0, SVG Export Plug-In . SVG Version: 6.00 Build 0)  -->
<svg version="1.1" id="Layer_1" xmlns="http://www.w3.org/2000/svg" xmlns:xlink="http://www.w3.org/1999/xlink" x="0px" y="0px"
	 viewBox="0 0 320 320" style="enable-background:new 0 0 320 320;" xml:space="preserve">
<style type="text/css">
	.st0{fill:#63C250;}
</style>
<g>
	<g id="XMLID_1_">
		<g>
			<path class="st0" d="M281.9,88.9c0,0.3,0,0.6,0,0.8c-6.6,8.9-13.9,17.1-22.7,23.9c-1.4,1.1-1.9,2.4-2,4.2c0,3.9-0.2,7.9-0.5,11.8
				c-3.5,44.4-22.3,81-58,108.1c-44.3,33.6-111.2,36.2-158.3,6.9c-0.8-0.6-2.1-0.8-2.3-2.6c26,2.1,49.8-4,71.7-20.2
				c-3.2-0.6-5.2-0.9-7.3-1.3c-17.3-3.6-29.5-13.8-36.9-29.8c-1.9-4-1.4-4.5,2.9-4.1c7.4,0.7,11.6,0.3,15-1.6
				c-1.2-0.4-2.2-0.7-3.2-1.1c-18.7-7.2-29.9-20.7-33.5-40.4c-0.4-2.2-1.4-5,0.4-6.6c1.9-1.7,3.9,0.8,5.9,1.4
				c4.3,1.3,8.5,3,13.8,2.7c-2.1-2.1-3.4-3.4-4.9-4.9c-15.4-15.2-19.6-37.8-10.5-57.2c1.9-4.1,2.7-4.2,5.6-0.8
				c4.9,5.8,10.4,11.1,16.3,16c22.9,19,49.1,29.8,78.7,32.6c3.5,0.4,4.7-0.4,4.3-4.4c-1.9-17.1,3.2-31.9,15.9-43.5
				c19.6-17.8,46.6-18,67.4-0.8c3,2.5,5.7,3.1,9.3,2.1c7.7-2.3,15.3-5,22.4-8.9c0.9-0.5,2-1.6,2.9-0.7c0.9,0.9-0.1,2.1-0.5,3
				c-2.3,5.4-5.3,10.4-9.4,14.7c-2.5,2.6-5.3,4.9-8.6,8C265.5,95,273.6,91.8,281.9,88.9z"/>
		</g>
		<g>
		</g>
	</g>
</g>
</svg>
